<svg height="512pt" viewBox="0 0 512 512" width="512pt" xmlns="http://www.w3.org/2000/svg" xmlns:xlink="http://www.w3.org/1999/xlink"><linearGradient id="a" gradientUnits="userSpaceOnUse" x1="0" x2="512" y1="256" y2="256"><stop offset="0" stop-color="#000428"/><stop offset="1" stop-color="#004e92"/></linearGradient><path d="m512 256c0 141.386719-114.613281 256-256 256s-256-114.613281-256-256 114.613281-256 256-256 256 114.613281 256 256zm0 0" fill="url(#a)"/><g fill="#fff"><path d="m244.863281 161.5625h66.644531v30h-66.644531zm0 0"/><path d="m325.644531 429.875h-192.53125c-23.121093 0-41.929687-18.808594-41.929687-41.929688v-263.890624c0-23.121094 18.808594-41.929688 41.929687-41.929688h248.40625v.085938c21.890625 1.390624 39.28125 19.613281 39.292969 41.816406v65.324218c0 23.121094-18.808594 41.929688-41.925781 41.929688h-11.3125v156.664062c0 23.121094-18.808594 41.929688-41.929688 41.929688zm-192.53125-317.746094c-6.578125 0-11.929687 5.347656-11.929687 11.925782v263.890624c0 6.578126 5.351562 11.929688 11.929687 11.929688h192.53125c6.578125 0 11.929688-5.351562 11.929688-11.929688v-263.890624c0-4.144532.601562-8.148438 1.726562-11.929688h-206.1875zm234.460938 89.152344h11.3125c6.578125 0 11.925781-5.347656 11.925781-11.925781v-65.316407c-.003906-6.453124-5.199219-11.730468-11.648438-11.90625-6.421874.179688-11.59375 5.457032-11.59375 11.921876v77.226562zm0 0"/><path d="m182.148438 212.878906-38.445313-36.160156 20.554687-21.851562 15.953126 15.003906 23.8125-26.828125 22.4375 19.917969zm0 0"/><path d="m244.863281 242.347656h66.644531v30h-66.644531zm0 0"/><path d="m182.148438 293.660156-38.445313-36.15625 20.554687-21.855468 15.953126 15.003906 23.8125-26.824219 22.4375 19.914063zm0 0"/><path d="m244.863281 323.128906h66.644531v30h-66.644531zm0 0"/><path d="m182.148438 374.445312-38.445313-36.160156 20.554687-21.851562 15.953126 15.003906 23.8125-26.828125 22.4375 19.917969zm0 0"/></g></svg>