<svg height="512pt" viewBox="0 0 512 512" width="512pt" xmlns="http://www.w3.org/2000/svg" xmlns:xlink="http://www.w3.org/1999/xlink"><linearGradient id="a" gradientUnits="userSpaceOnUse" x1="0" x2="512" y1="256" y2="256"><stop offset="0" stop-color="#000428"/><stop offset="1" stop-color="#004e92"/></linearGradient><path d="m512 256c0 141.386719-114.613281 256-256 256s-256-114.613281-256-256 114.613281-256 256-256 256 114.613281 256 256zm0 0" fill="url(#a)"/><path d="m371.414062 320.820312c8.109376-9.570312 13.015626-21.9375 13.015626-35.433593 0-25.417969-17.375-46.855469-40.871094-53.066407-4.203125-28.054687-21.617188-51.84375-45.6875-64.816406 8.109375-9.570312 13.015625-21.9375 13.015625-35.433594 0-30.265624-24.621094-54.886718-54.886719-54.886718s-54.890625 24.621094-54.890625 54.886718c0 13.496094 4.90625 25.863282 13.019531 35.433594-24.070312 12.972656-41.484375 36.761719-45.691406 64.816406-23.496094 6.210938-40.867188 27.644532-40.867188 53.066407 0 13.5 4.90625 25.863281 13.015626 35.433593-27.761719 14.960938-46.671876 44.3125-46.671876 77.996094h30c0-32.277344 26.261719-58.542968 58.542969-58.542968s58.542969 26.261718 58.542969 58.542968h30c0-32.277344 26.261719-58.542968 58.542969-58.542968 32.277343 0 58.542969 26.261718 58.542969 58.542968h30c0-33.683594-18.910157-63.035156-46.671876-77.996094zm-16.984374-35.433593c0 13.722656-11.164063 24.890625-24.886719 24.890625-13.722657 0-24.890625-11.164063-24.890625-24.890625 0-13.722657 11.167968-24.886719 24.890625-24.886719 13.722656 0 24.886719 11.164062 24.886719 24.886719zm-123.316407-153.316407c0-13.722656 11.164063-24.886718 24.886719-24.886718s24.886719 11.164062 24.886719 24.886718c0 13.722657-11.164063 24.886719-24.886719 24.886719s-24.886719-11.164062-24.886719-24.886719zm-73.542969 153.316407c0-13.722657 11.164063-24.886719 24.886719-24.886719 13.722657 0 24.886719 11.164062 24.886719 24.886719 0 13.722656-11.164062 24.890625-24.886719 24.890625-13.722656-.003906-24.886719-11.167969-24.886719-24.890625zm98.429688 64.175781c-8.042969-11.964844-18.921875-21.871094-31.671875-28.742188 8.109375-9.570312 13.015625-21.933593 13.015625-35.433593 0-24.570313-16.226562-45.417969-38.527344-52.394531 5.746094-26.289063 29.195313-46.035157 57.183594-46.035157s51.4375 19.746094 57.183594 46.035157c-22.300782 6.976562-38.527344 27.824218-38.527344 52.394531 0 13.5 4.90625 25.863281 13.015625 35.433593-12.75 6.871094-23.632813 16.777344-31.671875 28.742188zm0 0" fill="#fff"/></svg>