<svg height="512pt" viewBox="0 0 512 512" width="512pt" xmlns="http://www.w3.org/2000/svg" xmlns:xlink="http://www.w3.org/1999/xlink"><linearGradient id="a" gradientUnits="userSpaceOnUse" x1="0" x2="512" y1="256" y2="256"><stop offset="0" stop-color="#000428"/><stop offset="1" stop-color="#004e92"/></linearGradient><path d="m512 256c0 141.386719-114.613281 256-256 256s-256-114.613281-256-256 114.613281-256 256-256 256 114.613281 256 256zm0 0" fill="url(#a)"/><g fill="#fff"><path d="m286.71875 284.921875c7.367188-5.921875 13.679688-13.101563 18.609375-21.210937l-18.390625-18.390626c-7.003906 15.054688-20.492188 26.503907-36.855469 30.734376-4.816406-.496094-9.703125-.753907-14.648437-.753907-4.628906 0-9.207032.230469-13.722656.667969-24-6.359375-41.746094-28.253906-41.746094-54.226562 0-30.929688 25.164062-56.089844 56.09375-56.089844 4.476562 0 8.832031.53125 13.007812 1.523437l.042969-25.398437c-4.25-.691406-8.609375-1.054688-13.054687-1.054688-44.671876 0-81.019532 36.34375-81.019532 81.019532 0 25.335937 11.695313 47.984374 29.964844 62.851562-53.203125 20.363281-91.085938 71.949219-91.085938 132.222656h30c0-61.492187 50.027344-111.515625 111.519532-111.515625 61.492187 0 111.519531 50.023438 111.519531 111.515625h30c-.003906-59.953125-37.480469-111.3125-90.234375-131.894531zm0 0"/><path d="m418.085938 183.144531v-30h-22.976563c-1.035156-3.457031-2.410156-6.765625-4.097656-9.882812l16.25-16.25-21.214844-21.214844-16.25 16.25c-3.238281-1.757813-6.691406-3.167969-10.292969-4.214844v-22.648437h-30v22.882812c-3.308594 1.019532-6.480468 2.355469-9.472656 3.980469l-16.25-16.25-21.214844 21.214844 16.25 16.246093c-1.6875 3.121094-3.0625 6.429688-4.097656 9.886719h-23.179688v30h23.179688c1.035156 3.453125 2.410156 6.765625 4.097656 9.882813l-16.25 16.25 21.214844 21.214844 16.25-16.25c2.992188 1.621093 6.164062 2.957031 9.472656 3.980468v22.882813h30v-22.648438c3.601563-1.046875 7.054688-2.460937 10.292969-4.214843l16.25 16.25 21.214844-21.214844-16.25-16.25c1.6875-3.117188 3.0625-6.425782 4.097656-9.882813zm-85.902344-33.414062c3.617187-2.507813 8.003906-3.980469 12.730468-3.980469 12.347657 0 22.394532 10.046875 22.394532 22.394531 0 12.347657-10.046875 22.394531-22.394532 22.394531-12.351562 0-22.394531-10.046874-22.394531-22.394531 0-4.726562 1.472657-9.109375 3.980469-12.726562zm0 0"/></g></svg>